<?xml version="1.0" encoding="UTF-8" standalone="no"?>
<!-- Generator: Adobe Illustrator 19.0.0, SVG Export Plug-In . SVG Version: 6.00 Build 0)  -->

<svg
   xmlns:dc="http://purl.org/dc/elements/1.1/"
   xmlns:cc="http://creativecommons.org/ns#"
   xmlns:rdf="http://www.w3.org/1999/02/22-rdf-syntax-ns#"
   xmlns:svg="http://www.w3.org/2000/svg"
   xmlns="http://www.w3.org/2000/svg"
   xmlns:sodipodi="http://sodipodi.sourceforge.net/DTD/sodipodi-0.dtd"
   xmlns:inkscape="http://www.inkscape.org/namespaces/inkscape"
   version="1.1"
   id="Layer_1"
   x="0px"
   y="0px"
   viewBox="0 0 512 512"
   style="enable-background:new 0 0 512 512;"
   xml:space="preserve"
   sodipodi:docname="annuler.svg"
   inkscape:version="0.92.4 (5da689c313, 2019-01-14)"
   inkscape:export-filename="D:\prog\Visual\TVLW\view\image\boutons\annuler.png"
   inkscape:export-xdpi="96"
   inkscape:export-ydpi="96"><metadata
   id="metadata49"><rdf:RDF><cc:Work
       rdf:about=""><dc:format>image/svg+xml</dc:format><dc:type
         rdf:resource="http://purl.org/dc/dcmitype/StillImage" /></cc:Work></rdf:RDF></metadata><defs
   id="defs47" /><sodipodi:namedview
   pagecolor="#ffffff"
   bordercolor="#666666"
   borderopacity="1"
   objecttolerance="10"
   gridtolerance="10"
   guidetolerance="10"
   inkscape:pageopacity="0"
   inkscape:pageshadow="2"
   inkscape:window-width="1280"
   inkscape:window-height="961"
   id="namedview45"
   showgrid="false"
   inkscape:zoom="0.65186406"
   inkscape:cx="215.8773"
   inkscape:cy="229.27112"
   inkscape:window-x="-8"
   inkscape:window-y="-8"
   inkscape:window-maximized="1"
   inkscape:current-layer="Layer_1"
   inkscape:snap-bbox="true"
   inkscape:bbox-paths="true"
   inkscape:bbox-nodes="true"
   inkscape:snap-bbox-midpoints="true"
   inkscape:snap-bbox-edge-midpoints="true"
   inkscape:snap-page="true" />
<path
   style="fill:#ff0000"
   d="M256.002,503.671c136.785,0,247.671-110.886,247.671-247.672S392.786,8.329,256.002,8.329  S8.33,119.215,8.33,256.001S119.216,503.671,256.002,503.671z"
   id="path2" />

<path
   style="fill:#FFFFFF;"
   d="M311.525,256.001l65.206-65.206c4.74-4.74,4.74-12.425,0-17.163l-38.36-38.36  c-4.74-4.74-12.425-4.74-17.164,0l-65.206,65.206l-65.206-65.206c-4.74-4.74-12.425-4.74-17.163,0l-38.36,38.36  c-4.74,4.74-4.74,12.425,0,17.163l65.206,65.206l-65.206,65.206c-4.74,4.74-4.74,12.425,0,17.164l38.36,38.36  c4.74,4.74,12.425,4.74,17.163,0l65.206-65.206l65.206,65.206c4.74,4.74,12.425,4.74,17.164,0l38.36-38.36  c4.74-4.74,4.74-12.425,0-17.164L311.525,256.001z"
   id="path6" />
<path
   d="M388.614,182.213c0-5.467-2.129-10.607-5.995-14.471l-38.36-38.36c-3.865-3.865-9.004-5.994-14.471-5.994  s-10.605,2.129-14.471,5.994l-59.316,59.316l-59.316-59.316c-3.865-3.865-9.004-5.994-14.471-5.994  c-5.467,0-10.606,2.129-14.471,5.994l-38.36,38.36c-7.979,7.979-7.979,20.962,0,28.943l59.316,59.316l-59.316,59.316  c-7.979,7.979-7.979,20.962,0,28.943l38.36,38.36c3.865,3.865,9.004,5.993,14.471,5.993c5.467,0,10.606-2.129,14.471-5.993  l59.316-59.316l59.316,59.316c3.865,3.865,9.004,5.993,14.471,5.993s10.605-2.129,14.471-5.993l38.36-38.36  c3.866-3.865,5.995-9.004,5.995-14.471c0-5.467-2.129-10.607-5.995-14.471l-59.315-59.316l59.315-59.315  C386.485,192.818,388.614,187.68,388.614,182.213z M370.84,184.905l-65.204,65.206c-3.253,3.253-3.253,8.527,0,11.778l65.204,65.207  c0.971,0.971,1.115,2.103,1.115,2.692c0,0.589-0.144,1.721-1.115,2.692l-38.36,38.36c-0.971,0.971-2.103,1.115-2.692,1.115  c-0.589,0-1.722-0.144-2.692-1.115l-65.206-65.206c-1.626-1.626-3.758-2.44-5.889-2.44c-2.131,0-4.263,0.813-5.889,2.44  l-65.206,65.206c-0.971,0.971-2.103,1.115-2.692,1.115c-0.59,0-1.722-0.144-2.693-1.115l-38.36-38.36  c-1.484-1.485-1.484-3.9,0-5.385l65.206-65.206c3.253-3.253,3.253-8.527,0-11.778l-65.206-65.206c-1.484-1.485-1.484-3.9,0-5.385  l38.359-38.36c0.971-0.971,2.104-1.115,2.693-1.115s1.722,0.144,2.692,1.115l65.206,65.206c3.253,3.253,8.527,3.253,11.778,0  l65.206-65.206c0.971-0.971,2.103-1.115,2.692-1.115c0.589,0,1.722,0.144,2.692,1.115l38.36,38.36  c0.971,0.971,1.115,2.103,1.115,2.692S371.811,183.934,370.84,184.905z"
   id="path8" />


<g
   id="g14">
</g>
<g
   id="g16">
</g>
<g
   id="g18">
</g>
<g
   id="g20">
</g>
<g
   id="g22">
</g>
<g
   id="g24">
</g>
<g
   id="g26">
</g>
<g
   id="g28">
</g>
<g
   id="g30">
</g>
<g
   id="g32">
</g>
<g
   id="g34">
</g>
<g
   id="g36">
</g>
<g
   id="g38">
</g>
<g
   id="g40">
</g>
<g
   id="g42">
</g>
<g
   id="g1450"
   transform="rotate(93.071154,255.99249,256.00147)"><path
     inkscape:connector-curvature="0"
     id="path860"
     d="m 255.999,511.998 c -68.381,0 -132.668,-26.629 -181.019001,-74.979 C 26.628999,388.666 -1.3137073e-6,324.378 -1.3137073e-6,255.998 -1.3137073e-6,219.248 7.6239987,183.77 22.661999,150.548 c 14.525,-32.09 35.169,-60.411998 61.359,-84.177998 3.432,-3.114 8.738,-2.857 11.85,0.575 3.114,3.431 2.857,8.737 -0.575,11.85 -49.898,45.281998 -78.518,109.867998 -78.518,177.201998 0,63.899 24.883,123.972 70.067,169.155 C 132.028,470.334 192.101,495.217 256,495.217 c 54.064,0 105.073,-17.594 147.511,-50.884 3.647,-2.86 8.921,-2.22 11.779,1.423 2.86,3.645 2.221,8.92 -1.423,11.779 -45.422,35.63 -100.012,54.463 -157.868,54.463 z" /><path
     inkscape:connector-curvature="0"
     id="path864"
     d="m 433.487,437.015 c -2.109,0 -4.218,-0.79 -5.849,-2.376 -3.321,-3.232 -3.395,-8.543 -0.163,-11.863 43.687,-44.908 67.745,-104.138 67.745,-166.777 0,-63.898 -24.883,-123.971 -70.067,-169.154 C 379.969,41.662 319.897,16.779 255.998,16.779 c -48.378,0 -94.988,14.377 -134.79,41.575 -3.827,2.612 -9.045,1.631 -11.66,-2.194 -2.614,-3.826 -1.632,-9.046 2.194,-11.66 C 154.345,15.389 204.228,-4.5567481e-7 255.998,-4.5567481e-7 324.378,-4.5567481e-7 388.666,26.629 437.017,74.981 c 48.351,48.352 74.981,112.638 74.981,181.018 0,67.034 -25.748,130.418 -72.498,178.476 -1.643,1.691 -3.827,2.54 -6.013,2.54 z" /></g><path
   inkscape:connector-curvature="0"
   style="opacity:0.1;enable-background:new"
   d="M 74.962,256 C 74.962,130.515 168.289,26.842001 289.317,10.566001 278.418,9.1000005 267.301,8.3280005 256.001,8.3280005 119.216,8.3280005 8.33,119.214 8.33,256 c 0,136.786 110.886,247.672 247.671,247.672 11.3,0 22.417,-0.772 33.316,-2.238 C 168.289,485.158 74.962,381.485 74.962,256 Z"
   id="path4" /></svg>