<?xml version="1.0" encoding="UTF-8" standalone="no"?>
<!-- Generator: Adobe Illustrator 19.0.0, SVG Export Plug-In . SVG Version: 6.00 Build 0)  -->

<svg
   xmlns:dc="http://purl.org/dc/elements/1.1/"
   xmlns:cc="http://creativecommons.org/ns#"
   xmlns:rdf="http://www.w3.org/1999/02/22-rdf-syntax-ns#"
   xmlns:svg="http://www.w3.org/2000/svg"
   xmlns="http://www.w3.org/2000/svg"
   xmlns:sodipodi="http://sodipodi.sourceforge.net/DTD/sodipodi-0.dtd"
   xmlns:inkscape="http://www.inkscape.org/namespaces/inkscape"
   version="1.1"
   id="Layer_1"
   x="0px"
   y="0px"
   viewBox="0 0 512 512"
   style="enable-background:new 0 0 512 512;"
   xml:space="preserve"
   sodipodi:docname="moins.svg"
   inkscape:version="0.92.4 (5da689c313, 2019-01-14)"
   inkscape:export-filename="D:\prog\Visual\TVLW\view\image\boutons\moins.png"
   inkscape:export-xdpi="96"
   inkscape:export-ydpi="96"><metadata
   id="metadata45"><rdf:RDF><cc:Work
       rdf:about=""><dc:format>image/svg+xml</dc:format><dc:type
         rdf:resource="http://purl.org/dc/dcmitype/StillImage" /></cc:Work></rdf:RDF></metadata><defs
   id="defs43" /><sodipodi:namedview
   pagecolor="#ffffff"
   bordercolor="#666666"
   borderopacity="1"
   objecttolerance="10"
   gridtolerance="10"
   guidetolerance="10"
   inkscape:pageopacity="0"
   inkscape:pageshadow="2"
   inkscape:window-width="1280"
   inkscape:window-height="965"
   id="namedview41"
   showgrid="false"
   inkscape:zoom="0.921875"
   inkscape:cx="54.303339"
   inkscape:cy="188.10685"
   inkscape:window-x="-4"
   inkscape:window-y="-4"
   inkscape:window-maximized="1"
   inkscape:current-layer="Layer_1"
   inkscape:snap-object-midpoints="true"
   inkscape:snap-center="true"
   inkscape:snap-bbox="true"
   inkscape:bbox-paths="true"
   inkscape:snap-bbox-edge-midpoints="true"
   inkscape:snap-bbox-midpoints="true"
   inkscape:bbox-nodes="true"
   inkscape:snap-page="true" />
<path
   style="fill:#ffff00"
   d="M256.001,8.505C119.314,8.505,8.507,119.313,8.507,256s110.807,247.495,247.495,247.495  S503.496,392.688,503.496,256S392.689,8.505,256.001,8.505z"
   id="path2" />

<path
   style="fill:#FFFFFF;"
   d="M404.376,282.199c0,8.099-6.565,14.665-14.665,14.665H122.288c-8.099,0-14.665-6.565-14.665-14.665  V229.8c0-8.099,6.565-14.665,14.665-14.665h267.423c8.099,0,14.665,6.565,14.665,14.665V282.199z"
   id="path6" />
<path
   d="M 389.713,305.369 H 122.289 c -12.776,0 -23.17,-10.394 -23.17,-23.17 V 229.8 c 0,-12.776 10.394,-23.17 23.17,-23.17 h 267.423 c 12.776,0 23.17,10.395 23.17,23.17 v 52.399 c 0,12.776 -10.394,23.17 -23.169,23.17 z M 122.289,223.642 c -3.397,0 -6.159,2.764 -6.159,6.159 V 282.2 c 0,3.397 2.763,6.159 6.159,6.159 h 267.423 c 3.397,0 6.159,-2.763 6.159,-6.159 v -52.399 c 0,-3.397 -2.763,-6.159 -6.159,-6.159 z"
   id="path8"
   inkscape:connector-curvature="0"
   sodipodi:nodetypes="ssssssssssssssssss" />
<g
   id="g10">
</g>
<g
   id="g12">
</g>
<g
   id="g14">
</g>
<g
   id="g16">
</g>
<g
   id="g18">
</g>
<g
   id="g20">
</g>
<g
   id="g22">
</g>
<g
   id="g24">
</g>
<g
   id="g26">
</g>
<g
   id="g28">
</g>
<g
   id="g30">
</g>
<g
   id="g32">
</g>
<g
   id="g34">
</g>
<g
   id="g36">
</g>
<g
   id="g38">
</g>
<g
   id="g1450"
   transform="rotate(93.071154,255.99249,256.00147)"><path
     inkscape:connector-curvature="0"
     id="path860"
     d="m 255.999,511.998 c -68.381,0 -132.668,-26.629 -181.019001,-74.979 C 26.628999,388.666 -1.3137073e-6,324.378 -1.3137073e-6,255.998 -1.3137073e-6,219.248 7.6239987,183.77 22.661999,150.548 c 14.525,-32.09 35.169,-60.411998 61.359,-84.177998 3.432,-3.114 8.738,-2.857 11.85,0.575 3.114,3.431 2.857,8.737 -0.575,11.85 -49.898,45.281998 -78.518,109.867998 -78.518,177.201998 0,63.899 24.883,123.972 70.067,169.155 C 132.028,470.334 192.101,495.217 256,495.217 c 54.064,0 105.073,-17.594 147.511,-50.884 3.647,-2.86 8.921,-2.22 11.779,1.423 2.86,3.645 2.221,8.92 -1.423,11.779 -45.422,35.63 -100.012,54.463 -157.868,54.463 z" /><path
     inkscape:connector-curvature="0"
     id="path864"
     d="m 433.487,437.015 c -2.109,0 -4.218,-0.79 -5.849,-2.376 -3.321,-3.232 -3.395,-8.543 -0.163,-11.863 43.687,-44.908 67.745,-104.138 67.745,-166.777 0,-63.898 -24.883,-123.971 -70.067,-169.154 C 379.969,41.662 319.897,16.779 255.998,16.779 c -48.378,0 -94.988,14.377 -134.79,41.575 -3.827,2.612 -9.045,1.631 -11.66,-2.194 -2.614,-3.826 -1.632,-9.046 2.194,-11.66 C 154.345,15.389 204.228,-4.5567481e-7 255.998,-4.5567481e-7 324.378,-4.5567481e-7 388.666,26.629 437.017,74.981 c 48.351,48.352 74.981,112.638 74.981,181.018 0,67.034 -25.748,130.418 -72.498,178.476 -1.643,1.691 -3.827,2.54 -6.013,2.54 z" /></g><path
   inkscape:connector-curvature="0"
   style="opacity:0.1;enable-background:new"
   d="M 75.139,256 C 75.139,130.515 168.466,26.841999 289.494,10.566 278.595,9.0999997 267.478,8.3279997 256.178,8.3279997 119.393,8.3279997 8.507,119.214 8.507,256 c 0,136.786 110.886,247.672 247.671,247.672 11.3,0 22.417,-0.772 33.316,-2.238 C 168.466,485.158 75.139,381.485 75.139,256 Z"
   id="path4-8" /></svg>