<?xml version="1.0" encoding="UTF-8" standalone="no"?>
<!-- Generator: Adobe Illustrator 19.0.0, SVG Export Plug-In . SVG Version: 6.00 Build 0)  -->

<svg
   xmlns:dc="http://purl.org/dc/elements/1.1/"
   xmlns:cc="http://creativecommons.org/ns#"
   xmlns:rdf="http://www.w3.org/1999/02/22-rdf-syntax-ns#"
   xmlns:svg="http://www.w3.org/2000/svg"
   xmlns="http://www.w3.org/2000/svg"
   xmlns:sodipodi="http://sodipodi.sourceforge.net/DTD/sodipodi-0.dtd"
   xmlns:inkscape="http://www.inkscape.org/namespaces/inkscape"
   version="1.1"
   id="Layer_1"
   x="0px"
   y="0px"
   viewBox="0 0 512 512"
   style="enable-background:new 0 0 512 512;"
   xml:space="preserve"
   sodipodi:docname="retour.svg"
   inkscape:version="0.92.4 (5da689c313, 2019-01-14)"
   inkscape:export-filename="D:\prog\Visual\TVLW\view\image\boutons\retour.png"
   inkscape:export-xdpi="96"
   inkscape:export-ydpi="96"><metadata
   id="metadata47"><rdf:RDF><cc:Work
       rdf:about=""><dc:format>image/svg+xml</dc:format><dc:type
         rdf:resource="http://purl.org/dc/dcmitype/StillImage" /></cc:Work></rdf:RDF></metadata><defs
   id="defs45" /><sodipodi:namedview
   pagecolor="#ffffff"
   bordercolor="#666666"
   borderopacity="1"
   objecttolerance="10"
   gridtolerance="10"
   guidetolerance="10"
   inkscape:pageopacity="0"
   inkscape:pageshadow="2"
   inkscape:window-width="1280"
   inkscape:window-height="965"
   id="namedview43"
   showgrid="false"
   inkscape:snap-bbox="true"
   inkscape:bbox-paths="true"
   inkscape:bbox-nodes="true"
   inkscape:snap-bbox-edge-midpoints="true"
   inkscape:snap-bbox-midpoints="true"
   inkscape:snap-page="true"
   inkscape:zoom="0.65186406"
   inkscape:cx="-63.944939"
   inkscape:cy="-77.033385"
   inkscape:window-x="-4"
   inkscape:window-y="-4"
   inkscape:window-maximized="1"
   inkscape:current-layer="Layer_1" />
<path
   style="fill:#00ff00"
   d="M256.001,8.329C119.215,8.329,8.33,119.215,8.33,256.001S119.215,503.671,256,503.671  s247.671-110.886,247.671-247.671C503.672,119.215,392.786,8.329,256.001,8.329z"
   id="path2" />

<polygon
   style="fill:#FFFFFF;"
   points="386.801,297.462 288.983,297.462 288.983,354.798 119.403,256.001 288.983,157.202   288.983,214.538 386.801,214.538 "
   id="polygon8" />
<path
   d="m 288.983,363.127 c -1.449,0 -2.897,-0.378 -4.192,-1.133 L 115.212,263.195 c -2.561,-1.493 -4.137,-4.233 -4.137,-7.196 0,-2.963 1.575,-5.705 4.137,-7.196 l 169.579,-98.798 c 2.576,-1.501 5.758,-1.509 8.343,-0.024 2.585,1.486 4.179,4.24 4.179,7.221 v 49.007 h 89.489 c 4.6,0 8.329,3.729 8.329,8.329 v 82.923 c 0,4.6 -3.729,8.329 -8.329,8.329 h -89.489 v 49.007 c 0,2.982 -1.594,5.736 -4.179,7.221 -1.286,0.741 -2.719,1.109 -4.151,1.109 z M 135.948,255.999 280.654,340.306 v -42.845 c 0,-4.6 3.729,-8.329 8.329,-8.329 h 89.489 v -66.265 h -89.489 c -4.6,0 -8.329,-3.729 -8.329,-8.329 v -42.845 z"
   id="path10"
   inkscape:connector-curvature="0"
   sodipodi:nodetypes="sccscccscsssscscsccssccsscc" />
<g
   id="g12">
</g>
<g
   id="g14">
</g>
<g
   id="g16">
</g>
<g
   id="g18">
</g>
<g
   id="g20">
</g>
<g
   id="g22">
</g>
<g
   id="g24">
</g>
<g
   id="g26">
</g>
<g
   id="g28">
</g>
<g
   id="g30">
</g>
<g
   id="g32">
</g>
<g
   id="g34">
</g>
<g
   id="g36">
</g>
<g
   id="g38">
</g>
<g
   id="g40">
</g>
<g
   id="g1450"
   transform="rotate(93.071154,256.00114,256.00967)"><path
     inkscape:connector-curvature="0"
     id="path860"
     d="m 255.999,511.998 c -68.381,0 -132.668,-26.629 -181.019001,-74.979 C 26.628999,388.666 -1.3137073e-6,324.378 -1.3137073e-6,255.998 -1.3137073e-6,219.248 7.6239987,183.77 22.661999,150.548 c 14.525,-32.09 35.169,-60.411998 61.359,-84.177998 3.432,-3.114 8.738,-2.857 11.85,0.575 3.114,3.431 2.857,8.737 -0.575,11.85 -49.898,45.281998 -78.518,109.867998 -78.518,177.201998 0,63.899 24.883,123.972 70.067,169.155 C 132.028,470.334 192.101,495.217 256,495.217 c 54.064,0 105.073,-17.594 147.511,-50.884 3.647,-2.86 8.921,-2.22 11.779,1.423 2.86,3.645 2.221,8.92 -1.423,11.779 -45.422,35.63 -100.012,54.463 -157.868,54.463 z" /><path
     inkscape:connector-curvature="0"
     id="path864"
     d="m 433.487,437.015 c -2.109,0 -4.218,-0.79 -5.849,-2.376 -3.321,-3.232 -3.395,-8.543 -0.163,-11.863 43.687,-44.908 67.745,-104.138 67.745,-166.777 0,-63.898 -24.883,-123.971 -70.067,-169.154 C 379.969,41.662 319.897,16.779 255.998,16.779 c -48.378,0 -94.988,14.377 -134.79,41.575 -3.827,2.612 -9.045,1.631 -11.66,-2.194 -2.614,-3.826 -1.632,-9.046 2.194,-11.66 C 154.345,15.389 204.228,-4.5567481e-7 255.998,-4.5567481e-7 324.378,-4.5567481e-7 388.666,26.629 437.017,74.981 c 48.351,48.352 74.981,112.638 74.981,181.018 0,67.034 -25.748,130.418 -72.498,178.476 -1.643,1.691 -3.827,2.54 -6.013,2.54 z" /></g><path
   inkscape:connector-curvature="0"
   style="opacity:0.1;enable-background:new"
   d="M 74.962,256 C 74.962,130.515 168.289,26.842001 289.317,10.566001 278.418,9.1000005 267.301,8.3280005 256.001,8.3280005 119.216,8.3280005 8.33,119.214 8.33,256 c 0,136.786 110.886,247.672 247.671,247.672 11.3,0 22.417,-0.772 33.316,-2.238 C 168.289,485.158 74.962,381.485 74.962,256 Z"
   id="path4" /></svg>