<?xml version="1.0" encoding="UTF-8" standalone="no"?>
<!-- Generator: Adobe Illustrator 19.0.0, SVG Export Plug-In . SVG Version: 6.00 Build 0)  -->

<svg
   xmlns:dc="http://purl.org/dc/elements/1.1/"
   xmlns:cc="http://creativecommons.org/ns#"
   xmlns:rdf="http://www.w3.org/1999/02/22-rdf-syntax-ns#"
   xmlns:svg="http://www.w3.org/2000/svg"
   xmlns="http://www.w3.org/2000/svg"
   xmlns:sodipodi="http://sodipodi.sourceforge.net/DTD/sodipodi-0.dtd"
   xmlns:inkscape="http://www.inkscape.org/namespaces/inkscape"
   version="1.1"
   id="Layer_1"
   x="0px"
   y="0px"
   viewBox="0 0 512 512"
   style="enable-background:new 0 0 512 512;"
   xml:space="preserve"
   sodipodi:docname="valider.svg"
   inkscape:version="0.92.4 (5da689c313, 2019-01-14)"
   inkscape:export-filename="D:\prog\Visual\TVLW\view\image\boutons\valider.png"
   inkscape:export-xdpi="96"
   inkscape:export-ydpi="96"><metadata
   id="metadata49"><rdf:RDF><cc:Work
       rdf:about=""><dc:format>image/svg+xml</dc:format><dc:type
         rdf:resource="http://purl.org/dc/dcmitype/StillImage" /><dc:title /></cc:Work></rdf:RDF></metadata><defs
   id="defs47" /><sodipodi:namedview
   pagecolor="#ffffff"
   bordercolor="#666666"
   borderopacity="1"
   objecttolerance="10"
   gridtolerance="10"
   guidetolerance="10"
   inkscape:pageopacity="0"
   inkscape:pageshadow="2"
   inkscape:window-width="1280"
   inkscape:window-height="961"
   id="namedview45"
   showgrid="false"
   inkscape:zoom="0.92187499"
   inkscape:cx="168.35548"
   inkscape:cy="340.42473"
   inkscape:window-x="-8"
   inkscape:window-y="-8"
   inkscape:window-maximized="1"
   inkscape:current-layer="Layer_1"
   inkscape:snap-bbox="true"
   inkscape:bbox-paths="true"
   inkscape:bbox-nodes="true"
   inkscape:snap-bbox-edge-midpoints="true"
   inkscape:snap-bbox-midpoints="true"
   inkscape:snap-page="true" />
<path
   style="fill:#0000ff"
   d="M256.002,503.671c136.785,0,247.671-110.886,247.671-247.672S392.786,8.329,256.002,8.329  S8.33,119.215,8.33,256.001S119.216,503.671,256.002,503.671z"
   id="path2" /><path
   style="fill:#ffffff"
   inkscape:connector-curvature="0"
   d="m 341.66742,139.84766 -119.16778,119.16797 -52.16397,-52.16407 -56.57022,56.57032 52.16397,52.16406 56.57022,56.5664 175.7341,-175.73437 z m 0,0"
   id="path6258" />





<g
   id="g14">
</g>
<g
   id="g16">
</g>
<g
   id="g18">
</g>
<g
   id="g20">
</g>
<g
   id="g22">
</g>
<g
   id="g24">
</g>
<g
   id="g26">
</g>
<g
   id="g28">
</g>
<g
   id="g30">
</g>
<g
   id="g32">
</g>
<g
   id="g34">
</g>
<g
   id="g36">
</g>
<g
   id="g38">
</g>
<g
   id="g40">
</g>
<g
   id="g42">
</g>
<path
   inkscape:connector-curvature="0"
   d="m 222.49964,382.15234 c -2.65233,0 -5.1953,-1.05468 -7.07029,-2.92968 L 106.69514,270.49219 c -3.90624,-3.90625 -3.90624,-10.23828 0,-14.14453 l 56.56632,-56.56641 c 3.90624,-3.90625 10.23826,-3.90625 14.14451,0 L 222.49964,244.875 334.59321,132.77734 c 1.875,-1.875 4.42188,-2.92968 7.07421,-2.92968 2.64844,0 5.19531,1.05468 7.0703,2.92968 l 56.56632,56.57032 c 3.90625,3.90234 3.90625,10.23437 0,14.14062 l -175.7341,175.73828 c -1.87499,1.875 -4.41796,2.92578 -7.0703,2.92578 z m -94.58968,-118.73046 94.58968,94.58984 161.5935,-161.59375 -42.42572,-42.42969 -112.09748,112.09766 c -3.90624,3.90625 -10.23826,3.90625 -14.14059,0 l -45.09368,-45.09375 z m 0,0"
   id="path6260" /><g
   id="g1450"
   transform="rotate(93.071154,255.99249,256.00147)"><path
     inkscape:connector-curvature="0"
     id="path860"
     d="m 255.999,511.998 c -68.381,0 -132.668,-26.629 -181.019001,-74.979 C 26.628999,388.666 -1.3137073e-6,324.378 -1.3137073e-6,255.998 -1.3137073e-6,219.248 7.6239987,183.77 22.661999,150.548 c 14.525,-32.09 35.169,-60.411998 61.359,-84.177998 3.432,-3.114 8.738,-2.857 11.85,0.575 3.114,3.431 2.857,8.737 -0.575,11.85 -49.898,45.281998 -78.518,109.867998 -78.518,177.201998 0,63.899 24.883,123.972 70.067,169.155 C 132.028,470.334 192.101,495.217 256,495.217 c 54.064,0 105.073,-17.594 147.511,-50.884 3.647,-2.86 8.921,-2.22 11.779,1.423 2.86,3.645 2.221,8.92 -1.423,11.779 -45.422,35.63 -100.012,54.463 -157.868,54.463 z" /><path
     inkscape:connector-curvature="0"
     id="path864"
     d="m 433.487,437.015 c -2.109,0 -4.218,-0.79 -5.849,-2.376 -3.321,-3.232 -3.395,-8.543 -0.163,-11.863 43.687,-44.908 67.745,-104.138 67.745,-166.777 0,-63.898 -24.883,-123.971 -70.067,-169.154 C 379.969,41.662 319.897,16.779 255.998,16.779 c -48.378,0 -94.988,14.377 -134.79,41.575 -3.827,2.612 -9.045,1.631 -11.66,-2.194 -2.614,-3.826 -1.632,-9.046 2.194,-11.66 C 154.345,15.389 204.228,-4.5567481e-7 255.998,-4.5567481e-7 324.378,-4.5567481e-7 388.666,26.629 437.017,74.981 c 48.351,48.352 74.981,112.638 74.981,181.018 0,67.034 -25.748,130.418 -72.498,178.476 -1.643,1.691 -3.827,2.54 -6.013,2.54 z" /></g><path
   inkscape:connector-curvature="0"
   style="opacity:0.1;enable-background:new"
   d="M 74.961997,256 C 74.961997,130.515 168.289,26.841999 289.317,10.566 278.418,9.0999995 267.301,8.3279995 256.001,8.3279995 119.216,8.3279995 8.33,119.214 8.33,256 c 0,136.786 110.886,247.672 247.671,247.672 11.3,0 22.417,-0.772 33.316,-2.238 C 168.289,485.158 74.961997,381.485 74.961997,256 Z"
   id="path4" /><path
   inkscape:connector-curvature="0"
   d="m 429.95244,439.95313 c -2.63281,0 -5.21093,-1.07032 -7.07031,-2.92969 -1.85936,-1.86328 -2.92967,-4.44141 -2.92967,-7.07031 0,-2.63282 1.07031,-5.21094 2.92967,-7.07032 1.85938,-1.85937 4.4375,-2.92968 7.07031,-2.92968 2.6289,0 5.20702,1.07031 7.0703,2.92968 1.85937,1.85938 2.92969,4.4375 2.92969,7.07032 0,2.6289 -1.07032,5.20703 -2.92969,7.07031 -1.86328,1.85937 -4.4414,2.92969 -7.0703,2.92969 z m 0,0"
   id="path6264" /></svg>