<?xml version="1.0" encoding="UTF-8" standalone="no"?>
<!-- Generator: Adobe Illustrator 19.0.0, SVG Export Plug-In . SVG Version: 6.00 Build 0)  -->

<svg
   xmlns:dc="http://purl.org/dc/elements/1.1/"
   xmlns:cc="http://creativecommons.org/ns#"
   xmlns:rdf="http://www.w3.org/1999/02/22-rdf-syntax-ns#"
   xmlns:svg="http://www.w3.org/2000/svg"
   xmlns="http://www.w3.org/2000/svg"
   xmlns:sodipodi="http://sodipodi.sourceforge.net/DTD/sodipodi-0.dtd"
   xmlns:inkscape="http://www.inkscape.org/namespaces/inkscape"
   version="1.1"
   id="Layer_1"
   x="0px"
   y="0px"
   viewBox="0 0 512 512"
   style="enable-background:new 0 0 512 512;"
   xml:space="preserve"
   sodipodi:docname="valider.svg"
   inkscape:version="0.92.4 (5da689c313, 2019-01-14)"
   inkscape:export-filename="D:\prog\Visual\TVLW\view\image\boutons\valider.png"
   inkscape:export-xdpi="96"
   inkscape:export-ydpi="96"><metadata
   id="metadata49"><rdf:RDF><cc:Work
       rdf:about=""><dc:format>image/svg+xml</dc:format><dc:type
         rdf:resource="http://purl.org/dc/dcmitype/StillImage" /><dc:title /></cc:Work></rdf:RDF></metadata><defs
   id="defs47" /><sodipodi:namedview
   pagecolor="#ffffff"
   bordercolor="#666666"
   borderopacity="1"
   objecttolerance="10"
   gridtolerance="10"
   guidetolerance="10"
   inkscape:pageopacity="0"
   inkscape:pageshadow="2"
   inkscape:window-width="1280"
   inkscape:window-height="965"
   id="namedview45"
   showgrid="false"
   inkscape:zoom="0.65186406"
   inkscape:cx="-32.410554"
   inkscape:cy="328.09303"
   inkscape:window-x="-4"
   inkscape:window-y="-4"
   inkscape:window-maximized="1"
   inkscape:current-layer="Layer_1"
   inkscape:snap-bbox="true"
   inkscape:bbox-paths="true"
   inkscape:bbox-nodes="true"
   inkscape:snap-bbox-edge-midpoints="true"
   inkscape:snap-bbox-midpoints="true"
   inkscape:snap-page="true" />
<path
   style="fill:#0000ff"
   d="M256.002,503.671c136.785,0,247.671-110.886,247.671-247.672S392.786,8.329,256.002,8.329  S8.33,119.215,8.33,256.001S119.216,503.671,256.002,503.671z"
   id="path2" />





<g
   id="g14">
</g>
<g
   id="g16">
</g>
<g
   id="g18">
</g>
<g
   id="g20">
</g>
<g
   id="g22">
</g>
<g
   id="g24">
</g>
<g
   id="g26">
</g>
<g
   id="g28">
</g>
<g
   id="g30">
</g>
<g
   id="g32">
</g>
<g
   id="g34">
</g>
<g
   id="g36">
</g>
<g
   id="g38">
</g>
<g
   id="g40">
</g>
<g
   id="g42">
</g>
<path
   inkscape:connector-curvature="0"
   style="fill:#ffffff;stroke-width:0.51799744"
   d="M 344.85619,161.25047 228.56058,277.54608 c -3.1344,3.1344 -8.21699,3.1344 -11.35139,0 l -50.06187,-50.06186 -39.55738,39.55636 75.51625,75.51627 c 5.24576,5.24573 12.36046,8.19268 19.7787,8.19268 v 0 c 7.41772,0 14.53345,-2.94749 19.77818,-8.19268 L 384.41306,200.80684 Z"
   id="path2-5" /><path
   style="stroke-width:0.5106647"
   d="m 343.01029,156.75135 c -10.80915,4.91984 -16.18472,16.43579 -25.5404,23.29212 -31.32611,31.14349 -62.14911,62.79427 -93.97113,93.43553 -11.28725,-9.81227 -21.18807,-21.09107 -31.96626,-31.44165 -7.0111,-7.04981 -14.0057,-14.57704 -22.09561,-20.23299 -10.63168,2.48384 -14.96509,13.91717 -23.32287,19.88885 -7.82115,7.8229 -16.94904,15.22183 -22.72002,24.54915 2.90381,10.48459 14.04911,15.01488 20.20932,23.29269 21.97721,21.18041 41.66259,45.01857 66.20449,63.35143 15.87163,7.10752 35.14822,-0.49147 44.75623,-14.37453 44.60597,-45.01229 90.18723,-89.19605 134.04496,-134.8385 -0.054,-9.64481 -10.5039,-13.76637 -15.82124,-20.44436 -9.32012,-9.23529 -17.453,-20.00731 -28.87814,-26.82504 l -0.87305,0.33714 z m 2.02714,15.96668 c 9.63058,9.63057 19.26115,19.26115 28.89174,28.89173 -47.28892,46.31194 -92.64123,94.6693 -141.22147,139.61474 -11.93421,5.70914 -25.6039,-2.20416 -32.35565,-12.26528 -20.68813,-20.6893 -41.37615,-41.37872 -62.06435,-62.06796 10.26335,-9.8964 19.85837,-20.47992 30.52039,-29.96106 17.40951,15.85164 31.78856,35.33772 51.41873,48.527 10.68072,1.85341 18.20508,-8.14583 24.52681,-15.10762 32.98679,-32.98499 65.97368,-65.96989 98.9604,-98.95496 l 0.66177,0.66177 z"
   id="path8-7"
   inkscape:connector-curvature="0" /><g
   id="g1450"
   transform="rotate(93.071154,255.99249,256.00147)"><path
     inkscape:connector-curvature="0"
     id="path860"
     d="m 255.999,511.998 c -68.381,0 -132.668,-26.629 -181.019001,-74.979 C 26.628999,388.666 -1.3137073e-6,324.378 -1.3137073e-6,255.998 -1.3137073e-6,219.248 7.6239987,183.77 22.661999,150.548 c 14.525,-32.09 35.169,-60.411998 61.359,-84.177998 3.432,-3.114 8.738,-2.857 11.85,0.575 3.114,3.431 2.857,8.737 -0.575,11.85 -49.898,45.281998 -78.518,109.867998 -78.518,177.201998 0,63.899 24.883,123.972 70.067,169.155 C 132.028,470.334 192.101,495.217 256,495.217 c 54.064,0 105.073,-17.594 147.511,-50.884 3.647,-2.86 8.921,-2.22 11.779,1.423 2.86,3.645 2.221,8.92 -1.423,11.779 -45.422,35.63 -100.012,54.463 -157.868,54.463 z" /><path
     inkscape:connector-curvature="0"
     id="path864"
     d="m 433.487,437.015 c -2.109,0 -4.218,-0.79 -5.849,-2.376 -3.321,-3.232 -3.395,-8.543 -0.163,-11.863 43.687,-44.908 67.745,-104.138 67.745,-166.777 0,-63.898 -24.883,-123.971 -70.067,-169.154 C 379.969,41.662 319.897,16.779 255.998,16.779 c -48.378,0 -94.988,14.377 -134.79,41.575 -3.827,2.612 -9.045,1.631 -11.66,-2.194 -2.614,-3.826 -1.632,-9.046 2.194,-11.66 C 154.345,15.389 204.228,-4.5567481e-7 255.998,-4.5567481e-7 324.378,-4.5567481e-7 388.666,26.629 437.017,74.981 c 48.351,48.352 74.981,112.638 74.981,181.018 0,67.034 -25.748,130.418 -72.498,178.476 -1.643,1.691 -3.827,2.54 -6.013,2.54 z" /></g><path
   inkscape:connector-curvature="0"
   style="opacity:0.1;enable-background:new"
   d="M 74.961997,256 C 74.961997,130.515 168.289,26.841999 289.317,10.566 278.418,9.0999995 267.301,8.3279995 256.001,8.3279995 119.216,8.3279995 8.33,119.214 8.33,256 c 0,136.786 110.886,247.672 247.671,247.672 11.3,0 22.417,-0.772 33.316,-2.238 C 168.289,485.158 74.961997,381.485 74.961997,256 Z"
   id="path4" /></svg>